<?xml version="1.0" encoding="UTF-8"?>
<svg id="Capa_1" data-name="Capa 1" xmlns="http://www.w3.org/2000/svg" viewBox="0 0 200 200">
  <defs>
    <style>
      .cls-1 {
        fill: #fff;
      }
    </style>
  </defs>
  <path class="cls-1" d="M163.12,147.59c3.89-1.03,7.61-2.51,11.08-4.37,7.61,4.37,16.41,6.88,25.79,6.88,0,0,0,0,0,0v-3.48s0,0,0,0c-8.04,0-15.62-1.98-22.3-5.46,10.84-6.94,18.94-17.78,22.31-30.54v-26.52c-3.24-12.21-10.81-22.68-20.98-29.63,4.47-2.16,9.33-3.63,14.43-4.32,2.15.27,4.33.43,6.55.43,0,0,0,0,0,0v-4.36s0,0,0,0c-2.22,0-4.4.16-6.55.43-5.91-.8-11.48-2.66-16.52-5.39,11.23-6.91,19.63-17.97,23.07-31.03V.01h-17.67c-10.58,3.84-19.57,11.01-25.69,20.25-3.07-6.13-4.87-12.99-5.07-20.25h-3.62c-.46,7.33-2.55,14.22-5.92,20.32C135.08,10.49,124.78,3.17,112.81.01h-26.47c-11.97,3.16-22.26,10.47-29.22,20.32C53.76,14.24,51.66,7.34,51.21.01h-3.62c-.21,7.26-2,14.12-5.07,20.25C36.4,11.02,27.41,3.85,16.83.01H.01v13.12c3.86,11.78,11.83,21.73,22.21,28.12-5.04,2.74-10.61,4.59-16.52,5.39-1.87-.24-3.77-.36-5.7-.4v4.3c1.92-.03,3.83-.16,5.7-.4,5.1.69,9.96,2.17,14.43,4.32C10.78,60.87,3.62,70.23.01,81.2v32.33c3.77,11.49,11.44,21.23,21.45,27.63-6.44,3.35-13.73,5.29-21.45,5.43v3.48c9.06-.15,17.57-2.62,24.94-6.85,3.48,1.86,7.19,3.34,11.08,4.37C19.05,152.1,5.47,165.03.01,181.61v18.36h15.28c16.61-5.44,29.56-19.03,34.08-36.03.95,3.59,2.29,7.02,3.95,10.26-3.63,7.08-5.69,15.1-5.69,23.59,0,.73.04,1.46.07,2.19h3.48c-.03-.73-.07-1.45-.07-2.19,0-7.09,1.54-13.81,4.29-19.89,6.41,10.33,16.34,18.24,28.1,22.08h32.15c11.76-3.84,21.7-11.74,28.1-22.08,2.75,6.07,4.29,12.8,4.29,19.89,0,.74-.04,1.46-.07,2.19h3.48c.03-.73.07-1.45.07-2.19,0-8.49-2.06-16.5-5.69-23.59,1.66-3.24,2.99-6.67,3.95-10.26,4.52,17,17.47,30.59,34.08,36.03h16.14v-15.5c-4.77-17.95-18.93-32.12-36.88-36.89ZM151.77,145.8c.64-6.49,2.58-12.61,5.53-18.1,3.63,5.23,8.2,9.77,13.46,13.37-5.79,2.79-12.22,4.45-18.99,4.73ZM47.63,98.16c0,8.28-2.09,16.09-5.77,22.92-7.49-10.79-18.95-18.62-32.26-21.35,13.86-2.84,25.72-11.22,33.18-22.71,3.11,6.39,4.86,13.56,4.86,21.14ZM27.07,54.38c6.19-3.22,13.17-5.15,20.56-5.41-.02,7.53-1.77,14.65-4.86,21.01-4.06-6.25-9.42-11.58-15.7-15.6ZM44.87,73.5c1.82-3.35,3.26-6.93,4.31-10.68,1,3.99,2.47,7.8,4.33,11.37-1.75,3.35-3.15,6.92-4.14,10.65-1.06-3.98-2.57-7.78-4.5-11.33ZM127.49,54.38c6.19-3.22,13.15-5.14,20.53-5.41.01.41.03.83.03,1.24,0,7.26-1.62,14.15-4.49,20.34-4.1-6.5-9.59-12.03-16.07-16.17ZM141.67,74.19c-8.08,14.13-23.06,23.82-40.32,24.44-.01-.41-.03-.83-.03-1.24,0-17.27,9.09-32.45,22.73-41.03,7.32,4.3,13.41,10.46,17.63,17.83ZM123.99,52.33c-3.95-2.11-8.2-3.72-12.67-4.76,4.73-1.1,9.22-2.84,13.36-5.13,3.68,2.04,7.62,3.64,11.77,4.75-4.41,1.17-8.59,2.92-12.46,5.14ZM120.55,54.48c-10.16,6.94-17.73,17.39-20.98,29.59-3.24-12.2-10.82-22.65-20.98-29.59,6.35-3.06,13.47-4.78,20.98-4.78s14.62,1.72,20.98,4.78ZM97.84,97.39c0,.42-.02.83-.03,1.24-17.26-.62-32.24-10.31-40.32-24.44,4.22-7.37,10.31-13.53,17.63-17.83,13.64,8.58,22.73,23.76,22.73,41.03ZM75.16,52.33c-3.87-2.22-8.05-3.97-12.46-5.14,4.15-1.1,8.1-2.71,11.77-4.75,4.14,2.3,8.63,4.03,13.36,5.13-4.47,1.04-8.72,2.64-12.67,4.76ZM71.67,54.38c-6.47,4.14-11.97,9.67-16.07,16.17-2.88-6.19-4.49-13.08-4.49-20.34,0-.42.02-.83.03-1.24,7.38.27,14.34,2.19,20.53,5.41ZM55.6,77.82c6.91,10.97,17.81,19.19,30.65,22.6-12.07,3.21-22.42,10.66-29.36,20.66-3.68-6.83-5.77-14.63-5.77-22.92,0-7.26,1.62-14.15,4.49-20.34ZM97.6,102.21c-1.56,15.77-10.72,29.33-23.76,36.99-6.01-3.78-11.13-8.84-14.98-14.8,8.3-12.84,22.5-21.52,38.74-22.18ZM70.35,141.07c-5.79,2.79-12.22,4.45-18.99,4.73.64-6.49,2.58-12.61,5.53-18.1,3.63,5.23,8.2,9.77,13.46,13.37ZM73.79,143.22c3.47,1.99,7.19,3.6,11.11,4.76-3.66,1.08-7.14,2.55-10.42,4.36-3.68-2.04-7.62-3.64-11.77-4.75,3.89-1.03,7.61-2.51,11.08-4.37ZM77.28,141.16c10.82-6.92,18.92-17.73,22.3-30.45,3.38,12.72,11.48,23.53,22.3,30.45-4.96,2.58-10.41,4.32-16.18,5.06-2.01-.24-4.05-.37-6.12-.37s-4.11.14-6.12.37c-5.77-.73-11.22-2.48-16.18-5.06ZM101.56,102.21c16.24.66,30.44,9.34,38.74,22.18-3.85,5.96-8.97,11.02-14.98,14.8-13.03-7.66-22.19-21.22-23.76-36.99ZM125.37,143.22c3.48,1.86,7.19,3.34,11.08,4.37-4.15,1.1-8.1,2.71-11.77,4.75-3.27-1.81-6.76-3.28-10.42-4.36,3.91-1.16,7.63-2.76,11.11-4.76ZM128.81,141.07c5.26-3.6,9.83-8.13,13.46-13.37,2.96,5.49,4.89,11.6,5.53,18.1-6.78-.27-13.21-1.94-18.99-4.73ZM112.91,100.42c12.84-3.41,23.73-11.63,30.65-22.6,2.88,6.19,4.49,13.08,4.49,20.34,0,8.28-2.09,16.09-5.77,22.92-6.94-10-17.29-17.45-29.36-20.66ZM145.64,74.19c1.87-3.57,3.33-7.38,4.33-11.37,1.05,3.75,2.49,7.33,4.31,10.68-1.92,3.55-3.44,7.35-4.5,11.33-.99-3.73-2.39-7.29-4.14-10.65ZM151.53,48.97c7.39.26,14.36,2.19,20.56,5.41-6.28,4.02-11.64,9.34-15.7,15.6-3.09-6.35-4.84-13.48-4.86-21.01ZM156.39,77.02c7.45,11.49,19.31,19.87,33.18,22.71-13.31,2.72-24.77,10.56-32.26,21.35-3.68-6.83-5.77-14.63-5.77-22.92,0-7.57,1.75-14.75,4.86-21.14ZM174.25,139.19c-6.01-3.78-11.13-8.84-14.98-14.8,8.3-12.84,22.5-21.52,38.74-22.18-1.56,15.77-10.72,29.33-23.76,36.99ZM198.25,97.25c-16.99-.61-31.78-9.99-39.95-23.76,4.2-7.07,10.14-12.98,17.23-17.14,13.6,8.56,22.68,23.69,22.73,40.9ZM185.12,48.4c-3.33,1-6.52,2.32-9.54,3.93-3.87-2.22-8.05-3.97-12.46-5.14,3.59-.96,7.03-2.29,10.28-3.96,3.64,2.18,7.58,3.92,11.72,5.17ZM198.12.43c-1.17,16.65-10.79,30.99-24.58,38.78-6.07-3.97-11.21-9.26-14.98-15.47C166.75,10.25,181.36,1.07,198.12.43ZM170,41.01c-5.62,2.59-11.82,4.14-18.34,4.39.46-6.5,2.2-12.64,4.98-18.19,3.56,5.39,8.1,10.07,13.36,13.8ZM149.56,11.09c1.1,4.47,2.79,8.71,4.97,12.65-2.16,3.89-3.83,8.08-4.93,12.5-1.26-4.48-3.09-8.73-5.43-12.63,2.32-3.87,4.14-8.07,5.4-12.51ZM147.8,45.4c-7.04-.28-13.69-2.08-19.65-5.06,5.42-3.59,10.13-8.16,13.88-13.47,3.09,5.6,5.11,11.87,5.77,18.53ZM140.05,23.6c-3.96,6-9.21,11.08-15.37,14.83-12.7-7.72-21.58-21.11-23.12-36.62,16.08.65,30.16,9.16,38.49,21.8ZM121.21,40.33c-6.52,3.26-13.86,5.11-21.63,5.11s-15.12-1.85-21.63-5.11c10.49-6.93,18.32-17.56,21.63-30.02,3.31,12.46,11.14,23.09,21.63,30.02ZM97.6,1.8c-1.54,15.51-10.42,28.9-23.12,36.62-6.16-3.74-11.41-8.82-15.37-14.83C67.44,10.97,81.52,2.46,97.6,1.8ZM71,40.33c-5.96,2.99-12.61,4.78-19.65,5.06.66-6.66,2.68-12.93,5.77-18.53,3.75,5.31,8.45,9.88,13.88,13.47ZM49.59,11.09c1.25,4.44,3.08,8.64,5.4,12.51-2.34,3.91-4.18,8.15-5.43,12.63-1.11-4.42-2.78-8.61-4.93-12.5,2.18-3.93,3.86-8.18,4.97-12.65ZM47.49,45.4c-6.53-.25-12.72-1.8-18.34-4.39,5.26-3.73,9.8-8.41,13.36-13.8,2.78,5.55,4.52,11.69,4.98,18.19ZM1.04.43c16.76.64,31.37,9.82,39.57,23.31-3.77,6.21-8.91,11.5-14.98,15.47C11.83,31.42,2.21,17.07,1.04.43ZM14.04,48.4c4.15-1.24,8.08-2.99,11.72-5.17,3.25,1.66,6.68,3,10.28,3.96-4.41,1.17-8.59,2.92-12.46,5.14-3.02-1.61-6.21-2.93-9.54-3.93ZM23.63,56.35c7.09,4.17,13.03,10.08,17.23,17.14-8.17,13.76-22.96,23.15-39.95,23.76.05-17.22,9.12-32.34,22.73-40.9ZM24.9,139.19c-13.03-7.66-22.19-21.22-23.76-36.99,16.24.66,30.44,9.34,38.74,22.18-3.85,5.96-8.97,11.02-14.98,14.8ZM28.39,141.07c5.26-3.6,9.83-8.13,13.46-13.37,2.96,5.49,4.89,11.6,5.53,18.1-6.78-.27-13.21-1.94-18.99-4.73ZM.94,199.03c-.01-.41-.03-.83-.03-1.24,0-26.13,20.79-47.48,46.69-48.42.01.42.03.83.03,1.25,0,26.13-20.79,47.48-46.69,48.42ZM43.97,124.39c2.35-3.99,4.18-8.32,5.4-12.9,1.22,4.58,3.05,8.91,5.4,12.9-2.35,3.99-4.18,8.32-5.4,12.9-1.22-4.58-3.05-8.91-5.4-12.9ZM55.4,170.51c-2.75-6.07-4.29-12.8-4.29-19.89,0-.42.02-.83.03-1.25,7.12.26,13.84,2.05,19.86,5.07-6.29,4.16-11.63,9.65-15.6,16.06ZM97.81,199.03c-17.42-.63-32.52-10.49-40.54-24.83,4.1-7.33,10.05-13.5,17.21-17.85,14,8.51,23.36,23.9,23.36,41.44,0,.42-.02.83-.03,1.24ZM77.95,154.44c4.78-2.39,10-4.02,15.51-4.71,2.01.24,4.05.37,6.12.37s4.11-.14,6.12-.37c5.51.7,10.73,2.32,15.51,4.71-10.49,6.93-18.32,17.56-21.63,30.02-3.31-12.46-11.15-23.09-21.63-30.02ZM101.35,199.03c-.01-.41-.03-.83-.03-1.24,0-17.54,9.37-32.93,23.36-41.44,7.17,4.36,13.11,10.52,17.21,17.85-8.03,14.34-23.13,24.2-40.54,24.83ZM143.76,170.51c-3.98-6.42-9.31-11.9-15.6-16.06,6.02-3.02,12.74-4.81,19.86-5.07.01.42.03.83.03,1.25,0,7.09-1.54,13.81-4.29,19.89ZM144.39,124.39c2.35-3.99,4.18-8.32,5.4-12.9,1.22,4.58,3.05,8.91,5.4,12.9-2.35,3.99-4.18,8.32-5.4,12.9-1.22-4.58-3.05-8.91-5.4-12.9ZM198.22,199.03c-25.91-.94-46.69-22.29-46.69-48.42,0-.42.02-.83.03-1.25,25.91.94,46.69,22.29,46.69,48.42,0,.42-.02.83-.03,1.24Z"/>
</svg>